#!OML:ASF Y:\EmotionMaleHayes\Project 1\Capture day 1\Session 1\Male1.ASF
:FULLY-SPECIFIED
:DEGREES
170
root -28.6729 17.0458 1.12053 38.7441 85.5267 39.3995
lowerback 3.47545 1.48281 -3.92426
upperback 0.784141 1.84124 -0.724325
thorax -1.24144 0.937971 1.37052
lowerneck -22.2199 3.25987 4.24414
upperneck 26.3342 3.87674 -1.61871
head 12.5632 2.02791 -0.643079
rclavicle 1.56776e-014 -7.70291e-015
rhumerus -34.6186 6.65859 -90.8296
rradius 30.3151
rwrist 7.29043
rhand -9.20348 -30.4393
rfingers 7.12502
rthumb 16.7506 -59.7367
lclavicle 1.56776e-014 -7.70291e-015
lhumerus -31.9368 -7.88205 91.5182
lradius 22.4191
lwrist -18.4043
lhand -14.4708 -27.4155
lfingers 7.12502
lthumb 11.6752 2.23921
rfemur 9.30833 -2.44175 9.65853
rtibia 2.01843
rfoot -13.4022 2.97573
rtoes 12.6975
lfemur 13.0603 -2.92232 -16.2998
ltibia -2.81038
lfoot -12.4363 15.0027
ltoes -10.1673
171
root -28.6731 17.0445 1.11874 38.8902 85.5147 39.5291
lowerback 3.47713 1.4964 -3.91408
upperback 0.773147 1.85913 -0.747357
thorax -1.25354 0.947228 1.34009
lowerneck -22.2448 3.26958 4.31482
upperneck 26.3468 3.86847 -1.63457
head 12.5752 2.0291 -0.661975
rclavicle 7.29602e-015 -1.2275e-014
rhumerus -34.6489 6.57255 -90.8291
rradius 30.3503
rwrist 7.26161
rhand -9.20877 -30.4471
rfingers 7.12502
rthumb 16.7455 -59.7449
lclavicle 7.29602e-015 -1.2275e-014
lhumerus -31.9163 -7.94637 91.5074
lradius 22.4045
lwrist -18.4877
lhand -14.8552 -27.3197
lfingers 7.12502
lthumb 11.3044 2.35567
rfemur 9.27819 -2.51176 9.5984
rtibia 2.03596
rfoot -13.319 3.10319
rtoes 13.212
lfemur 13.0278 -2.85569 -16.3068
ltibia -2.78074
lfoot -12.4898 14.9476
ltoes -9.46598
172
root -28.6731 17.0433 1.11795 39.1308 85.5079 39.7361
lowerback 3.44181 1.50389 -3.89546
upperback 0.764979 1.87103 -0.785719
thorax -1.24093 0.953062 1.29058
lowerneck -22.2838 3.26827 4.38089
upperneck 26.3706 3.8482 -1.65845
head 12.5941 2.02338 -0.685049
rclavicle 1.69899e-015 -1.59525e-014
rhumerus -34.6444 6.51395 -90.8493
rradius 30.3524
rwrist 7.26694
rhand -9.25572 -30.4185
rfingers 7.12502
rthumb 16.7003 -59.7201
lclavicle 1.69899e-015 -1.59525e-014
lhumerus -31.8584 -7.96206 91.4306
lradius 22.3376
lwrist -18.5697
lhand -15.2297 -27.2892
lfingers 7.12502
lthumb 10.9432 2.4056
rfemur 9.24786 -2.44904 9.60588
rtibia 2.0221
rfoot -13.3681 2.97682
rtoes 13.3725
lfemur 12.9622 -2.73982 -16.2894
ltibia -2.73464
lfoot -12.4296 14.8518
ltoes -10.2177
173
root -28.6732 17.044 1.11695 39.7486 85.5147 40.3675
lowerback 3.4568 1.49059 -3.93749
upperback 0.768051 1.85132 -0.779671
thorax -1.24665 0.943454 1.32085
lowerneck -22.3032 3.26879 4.3498
upperneck 26.3866 3.86238 -1.66578
head 12.6042 2.0254 -0.679866
rclavicle 1.78254e-014 -5.01931e-015
rhumerus -34.6684 6.79825 -90.9666
rradius 30.4432
rwrist 7.10088
rhand -9.5963 -30.7694
rfingers 7.12502
rthumb 16.3724 -60.0984
lclavicle 1.78254e-014 -5.01931e-015
lhumerus -31.8425 -7.77474 91.3793
lradius 22.309
lwrist -18.7541
lhand -15.2039 -27.2542
lfingers 7.12502
lthumb 10.9681 2.43934
rfemur 9.3019 -2.20825 9.66262
rtibia 1.94987
rfoot -13.5209 2.64621
rtoes 12.7132
lfemur 12.9424 -2.62203 -16.2887
ltibia -2.7017
lfoot -12.3131 14.7584
ltoes -11.2764
174
root -28.6729 17.0451 1.11568 39.5881 85.5322 40.2452
lowerback 3.49744 1.47685 -3.9518
upperback 0.774541 1.83089 -0.745637
thorax -1.2632 0.93345 1.36377
lowerneck -22.2758 3.28289 4.35257
upperneck 26.3551 3.89261 -1.70154
head 12.5881 2.03397 -0.689249
rclavicle 4.46489e-015 -8.49804e-015
rhumerus -34.6579 6.86842 -90.9404
rradius 30.454
rwrist 6.9176
rhand -9.62368 -30.3828
rfingers 7.12502
rthumb 16.346 -59.7139
lclavicle 4.46489e-015 -8.49804e-015
lhumerus -31.8394 -7.62857 91.3691
lradius 22.2828
lwrist -18.8809
lhand -15.2211 -27.2677
lfingers 7.12502
lthumb 10.9515 2.42664
rfemur 9.36305 -2.06909 9.73016
rtibia 1.90929
rfoot -13.4873 2.5544
rtoes 12.9508
lfemur 13.008 -2.68307 -16.2871
ltibia -2.74976
lfoot -12.3624 14.7595
ltoes -10.8448
175
root -28.673 17.0463 1.11419 39.3671 85.5225 40.0564
lowerback 3.52585 1.46956 -3.93025
upperback 0.781315 1.82081 -0.751396
thorax -1.27076 0.92844 1.34568
lowerneck -22.2865 3.30312 4.42337
upperneck 26.3699 3.9149 -1.76386
head 12.6002 2.04247 -0.720801
rclavicle 3.54706e-015 -1.21259e-014
rhumerus -34.7341 7.0488 -91.0501
rradius 30.584
rwrist 7.00084
rhand -9.47316 -31.0581
rfingers 7.12502
rthumb 16.4909 -60.3773
lclavicle 3.54706e-015 -1.21259e-014
lhumerus -31.8222 -7.66118 91.3759
lradius 22.2503
lwrist -18.8431
lhand -15.3272 -27.2971
lfingers 7.12502
lthumb 10.8491 2.40269
rfemur 9.363 -2.25921 9.65955
rtibia 1.9828
rfoot -13.4796 2.77153
rtoes 12.9648
lfemur 13.0705 -2.84949 -16.3492
ltibia -2.78479
lfoot -12.5222 14.8413
ltoes -10.1215
176
root -28.675 17.0469 1.11227 40.5912 85.4805 41.2684
lowerback 3.52872 1.46542 -3.99572
upperback 0.782433 1.81283 -0.800008
thorax -1.27119 0.9249 1.33268
lowerneck -22.4286 3.30646 4.5104
upperneck 26.4987 3.90652 -1.83269
head 12.6841 2.03797 -0.760802
rclavicle 4.07509e-015 1.19271e-015
rhumerus -34.7658 7.21614 -91.1686
rradius 31.028
rwrist 6.1943
rhand -8.96604 -32.0914
rfingers 7.12502
rthumb 16.9791 -61.3693
lclavicle 4.07509e-015 1.19271e-015
lhumerus -31.8438 -7.86705 91.4331
lradius 22.3464
lwrist -18.6425
lhand -15.4123 -27.2773
lfingers 7.12502
lthumb 10.7671 2.42679
rfemur 9.28099 -2.85331 9.31833
rtibia 2.16807
rfoot -13.724 3.33478
rtoes 10.9832
lfemur 13.0882 -3.17795 -16.6071
ltibia -2.83633
lfoot -12.6454 15.0854
ltoes -9.8503
177
root -28.6765 17.0456 1.11115 40.7711 85.4877 41.4241
lowerback 3.50678 1.47 -4.00079
upperback 0.784301 1.81991 -0.802335
thorax -1.25744 0.928201 1.3334
lowerneck -22.5843 3.29582 4.6336
upperneck 26.6455 3.89212 -1.98942
head 12.7809 2.0225 -0.841745
rclavicle -1.63625e-014 1.19271e-015
rhumerus -34.7644 7.12345 -91.1458
rradius 30.9305
rwrist 6.48487
rhand -9.42315 -31.5185
rfingers 7.12502
rthumb 16.5391 -60.8336
lclavicle -1.63625e-014 1.19271e-015
lhumerus -31.8204 -7.94872 91.4619
lradius 22.362
lwrist -18.5937
lhand -15.1623 -27.3152
lfingers 7.12502
lthumb 11.0082 2.37621
rfemur 9.1874 -3.62202 9.02288
rtibia 2.3659
rfoot -13.3394 4.02888
rtoes 11.6021
lfemur 13.1026 -3.39253 -16.7048
ltibia -2.89755
lfoot -12.6315 15.2866
ltoes -10.104
178
root -28.6754 17.0453 1.11064 39.7211 85.5171 40.3916
lowerback 3.5021 1.47484 -3.94541
upperback 0.783689 1.82856 -0.7494
thorax -1.25596 0.93208 1.35649
lowerneck -22.6699 3.29056 4.70104
upperneck 26.7849 3.9106 -2.14277
head 12.8607 2.01736 -0.907448
rclavicle -1.51884e-015 -5.46658e-015
rhumerus -34.8072 6.95576 -91.0276
rradius 30.7621
rwrist 7.09275
rhand -9.55016 -31.0892
rfingers 7.12502
rthumb 16.4168 -60.4145
lclavicle -1.51884e-015 -5.46658e-015
lhumerus -31.783 -7.8354 91.4717
lradius 22.2524
lwrist -18.7024
lhand -14.9041 -27.4251
lfingers 7.12502
lthumb 11.2572 2.25284
rfemur 9.22459 -3.17318 9.28574
rtibia 2.27662
rfoot -13.4563 3.58334
rtoes 12.3185
lfemur 13.091 -3.15514 -16.5219
ltibia -2.83679
lfoot -12.4735 15.1315
ltoes -10.5358
179
root -28.6738 17.0466 1.11042 39.5001 85.5253 40.1968
lowerback 3.51655 1.47083 -3.94127
upperback 0.781801 1.82266 -0.720758
thorax -1.26649 0.929224 1.38344
lowerneck -22.618 3.27335 4.57793
upperneck 26.7607 3.90525 -2.04978
head 12.8348 2.01569 -0.852545
rclavicle 2.43822e-016 1.70955e-014
rhumerus -34.8619 7.14387 -91.0723
rradius 30.9965
rwrist 6.62839
rhand -9.28883 -31.6376
rfingers 7.12502
rthumb 16.6684 -60.9419
lclavicle 2.43822e-016 1.70955e-014
lhumerus -31.8325 -7.92582 91.5636
lradius 22.306
lwrist -18.4581
lhand -15.3179 -27.3326
lfingers 7.12502
lthumb 10.8581 2.36667
rfemur 9.28425 -3.01665 9.3502
rtibia 2.20198
rfoot -13.4476 3.53569
rtoes 13.0948
lfemur 13.0772 -2.77769 -16.347
ltibia -2.76271
lfoot -12.3589 14.7753
ltoes -10.5895
180
root -28.6741 17.0464 1.11093 39.5125 85.5495 40.2035
lowerback 3.52217 1.45699 -3.94359
upperback 0.773558 1.80357 -0.712934
thorax -1.27741 0.919937 1.39343
lowerneck -22.5995 3.27273 4.5563
upperneck 26.7444 3.90437 -2.02336
head 12.8232 2.01675 -0.839163
rclavicle 5.51627e-015 -9.93923e-016
rhumerus -34.8791 7.36514 -91.1795
rradius 31.2143
rwrist 6.01098
rhand -9.22929 -31.9397
rfingers 7.12502
rthumb 16.7257 -61.2391
lclavicle 5.51627e-015 -9.93923e-016
lhumerus -31.8595 -7.95007 91.5843
lradius 22.4076
lwrist -18.3009
lhand -14.7002 -27.3548
lfingers 7.12502
lthumb 11.4539 2.31229
rfemur 9.34532 -2.57665 9.5337
rtibia 2.05278
rfoot -13.4359 3.18973
rtoes 13.8223
lfemur 13.0301 -2.4819 -16.2053
ltibia -2.68985
lfoot -12.2459 14.4913
ltoes -10.5082
181
root -28.6746 17.046 1.10988 39.6959 85.5153 40.3663
lowerback 3.50684 1.43767 -4.00135
upperback 0.740382 1.77532 -0.702549
thorax -1.30348 0.906752 1.43761
lowerneck -22.4992 3.30444 4.57831
upperneck 26.7047 3.95868 -2.06103
head 12.7905 2.03878 -0.849002
rclavicle 1.82773e-014 1.36167e-014
rhumerus -34.9451 7.34758 -91.1325
rradius 30.912
rwrist 6.81542
rhand -9.55648 -31.2586
rfingers 7.12502
rthumb 16.4107 -60.5844
lclavicle 1.82773e-014 1.36167e-014
lhumerus -31.9001 -7.71348 91.523
lradius 22.4324
lwrist -18.5306
lhand -14.658 -27.2899
lfingers 7.12502
lthumb 11.4946 2.37492
rfemur 9.31947 -2.37394 9.57238
rtibia 2.02981
rfoot -13.4165 2.95433
rtoes 14.1496
lfemur 12.928 -2.22486 -16.1655
ltibia -2.53998
lfoot -12.1256 14.2946
ltoes -10.6365
182
root -28.6727 17.0457 1.10774 40.5308 85.4261 41.2056
lowerback 3.46097 1.42456 -4.1252
upperback 0.727274 1.75536 -0.701824
thorax -1.29386 0.897248 1.50948
lowerneck -22.4418 3.37599 4.60592
upperneck 26.7097 4.06639 -2.09287
head 12.7868 2.08575 -0.84738
rclavicle 1.04346e-014 -2.2413e-014
rhumerus -34.9727 7.39814 -91.0944
rradius 31.1896
rwrist 6.29096
rhand -8.78772 -32.1601
rfingers 7.12502
rthumb 17.1508 -61.4232
lclavicle 1.04346e-014 -2.2413e-014
lhumerus -31.9524 -7.67524 91.5673
lradius 22.4492
lwrist -18.4815
lhand -14.7564 -27.2338
lfingers 7.12502
lthumb 11.3997 2.43628
rfemur 9.29425 -2.52441 9.38038
rtibia 2.09514
rfoot -13.3928 3.06475
rtoes 13.4608
lfemur 12.9037 -2.12385 -16.2854
ltibia -2.46737
lfoot -12.1865 14.16
ltoes -10.5135
